<svg xmlns="http://www.w3.org/2000/svg" width="256" height="256" viewBox="0 0 256 256"><defs><style>.a{fill:#333;}.b{fill:#fff;}.c{fill:#f7931e;}.d{fill:#fcee21;}.e{fill:#8cc63f;}.f{fill:#00a99d;}</style></defs><rect class="a" width="256" height="256"/><rect class="b" x="14.33" y="77.05" width="227.85" height="8.82"/><path class="c" d="M14.33,161.62v-47c0-5.81,1.8-10.62,5.31-14.32s8.11-5.52,13.72-5.52c6.72,0,11.83,3.11,15.43,9.22,2.21-3.3,4.51-5.71,7.12-7.11a19.13,19.13,0,0,1,9.32-2.11c5.81,0,10.32,1.81,13.42,5.52s4.71,9,4.71,15.93v45.39H63.92V119.23a12.34,12.34,0,0,0-.5-4.21c-.3-.7-1-1-2-1-1.9,0-2.91,1.61-2.91,4.91v42.79H39.08V119.33a11.34,11.34,0,0,0-.51-4.11c-.3-.7-1-1-2.1-1-1.9,0-2.91,1.71-2.91,5.21v42.39H14.33Z"/><path class="d" d="M86.17,161.62v-47c0-5.81,1.8-10.62,5.31-14.32s8.11-5.52,13.72-5.52c6.72,0,11.83,3.11,15.44,9.22,2.2-3.3,4.5-5.71,7.11-7.11a18.87,18.87,0,0,1,9.32-2.11c5.81,0,10.32,1.81,13.42,5.52s4.71,9,4.71,15.93v45.39H135.76V119.23a12.34,12.34,0,0,0-.5-4.21c-.3-.7-1-1-2-1-1.9,0-2.91,1.61-2.91,4.91v42.79H111V119.33a11.64,11.64,0,0,0-.5-4.11c-.31-.7-1-1-2.11-1-1.9,0-2.9,1.71-2.9,5.21v42.39H86.17Z"/><path class="e" d="M158,96.39h19.44v38.77c0,3,.5,5,1.5,6s2.9,1.5,5.71,1.5h1v18.94h-5.21c-7.11,0-12.62-2.11-16.53-6.22S158,145.58,158,138.27Z"/><path class="f" d="M241.57,96.39l-16.93,31.76,17.53,33.47H221.73l-8-15.84-6.82,15.84h-20l17.94-33L187.87,96.39h20.24l7.61,14.83,6.11-14.83Z"/><rect class="b" x="14.33" y="172.24" width="227.85" height="8.82"/></svg>